<svg xmlns="http://www.w3.org/2000/svg" xmlns:xlink="http://www.w3.org/1999/xlink" contentStyleType="text/css" data-diagram-type="ACTIVITY" height="744px" preserveAspectRatio="none" style="width:312px;height:744px;background:#FFFFFF;" version="1.1" viewBox="0 0 312 744" width="312px" zoomAndPan="magnify"><defs/><g><ellipse cx="156.126" cy="20" fill="#222222" rx="10" ry="10" style="stroke:#222222;stroke-width:1;"/><rect fill="#F1F1F1" height="33.9688" rx="12.5" ry="12.5" style="stroke:#181818;stroke-width:0.5;" width="184.4902" x="63.8809" y="50"/><text fill="#000000" font-family="sans-serif" font-size="12" lengthAdjust="spacing" textLength="164.4902" x="73.8809" y="71.1387">Check if patient data exists</text><polygon fill="#F1F1F1" points="110.2703,103.9688,201.9817,103.9688,213.9817,115.9688,201.9817,127.9688,110.2703,127.9688,98.2703,115.9688,110.2703,103.9688" style="stroke:#181818;stroke-width:0.5;"/><text fill="#000000" font-family="sans-serif" font-size="11" lengthAdjust="spacing" textLength="91.7114" x="110.2703" y="119.7769">No patient data?</text><text fill="#000000" font-family="sans-serif" font-size="11" lengthAdjust="spacing" textLength="19.0083" x="213.9817" y="113.3745">yes</text><ellipse cx="254.99" cy="115.9688" fill="none" rx="11" ry="11" style="stroke:#222222;stroke-width:1;"/><ellipse cx="254.99" cy="115.9688" fill="#222222" rx="6" ry="6" style="stroke:#222222;stroke-width:1;"/><rect fill="#F1F1F1" height="33.9688" rx="12.5" ry="12.5" style="stroke:#181818;stroke-width:0.5;" width="242.2637" x="34.9941" y="147.9688"/><text fill="#000000" font-family="sans-serif" font-size="12" lengthAdjust="spacing" textLength="222.2637" x="44.9941" y="169.1074">Check if medication document exists</text><polygon fill="#F1F1F1" points="83.7908,201.9375,228.4612,201.9375,240.4612,213.9375,228.4612,225.9375,83.7908,225.9375,71.7908,213.9375,83.7908,201.9375" style="stroke:#181818;stroke-width:0.5;"/><text fill="#000000" font-family="sans-serif" font-size="11" lengthAdjust="spacing" textLength="144.6704" x="83.7908" y="217.7456">No medication document?</text><text fill="#000000" font-family="sans-serif" font-size="11" lengthAdjust="spacing" textLength="19.0083" x="240.4612" y="211.3433">yes</text><ellipse cx="281.4695" cy="213.9375" fill="none" rx="11" ry="11" style="stroke:#222222;stroke-width:1;"/><ellipse cx="281.4695" cy="213.9375" fill="#222222" rx="6" ry="6" style="stroke:#222222;stroke-width:1;"/><rect fill="#F1F1F1" height="33.9688" rx="12.5" ry="12.5" style="stroke:#181818;stroke-width:0.5;" width="203.498" x="54.377" y="245.9375"/><text fill="#000000" font-family="sans-serif" font-size="12" lengthAdjust="spacing" textLength="183.498" x="64.377" y="267.0762">Look for doctor contact details</text><rect fill="#F1F1F1" height="33.9688" rx="12.5" ry="12.5" style="stroke:#181818;stroke-width:0.5;" width="228.8926" x="41.6797" y="299.9063"/><text fill="#000000" font-family="sans-serif" font-size="12" lengthAdjust="spacing" textLength="208.8926" x="51.6797" y="321.0449">Collect phone numbers and emails</text><rect fill="#F1F1F1" height="33.9688" rx="12.5" ry="12.5" style="stroke:#181818;stroke-width:0.5;" width="246.3008" x="32.9756" y="353.875"/><text fill="#000000" font-family="sans-serif" font-size="12" lengthAdjust="spacing" textLength="226.3008" x="42.9756" y="375.0137">Look inside the medication document</text><rect fill="#F1F1F1" height="33.9688" rx="12.5" ry="12.5" style="stroke:#181818;stroke-width:0.5;" width="287.2051" x="12.5234" y="407.8438"/><text fill="#000000" font-family="sans-serif" font-size="12" lengthAdjust="spacing" textLength="267.2051" x="22.5234" y="428.9824">Search for specific categories we care about</text><polygon fill="#F1F1F1" points="97.6375,461.8125,214.6145,461.8125,226.6145,473.8125,214.6145,485.8125,97.6375,485.8125,85.6375,473.8125,97.6375,461.8125" style="stroke:#181818;stroke-width:0.5;"/><text fill="#000000" font-family="sans-serif" font-size="11" lengthAdjust="spacing" textLength="116.9771" x="97.6375" y="477.6206">No categories found?</text><text fill="#000000" font-family="sans-serif" font-size="11" lengthAdjust="spacing" textLength="19.0083" x="226.6145" y="471.2183">yes</text><ellipse cx="267.6228" cy="473.8125" fill="none" rx="11" ry="11" style="stroke:#222222;stroke-width:1;"/><ellipse cx="267.6228" cy="473.8125" fill="#222222" rx="6" ry="6" style="stroke:#222222;stroke-width:1;"/><rect fill="#F1F1F1" height="33.9688" rx="12.5" ry="12.5" style="stroke:#181818;stroke-width:0.5;" width="181.1738" x="65.5391" y="505.8125"/><text fill="#000000" font-family="sans-serif" font-size="12" lengthAdjust="spacing" textLength="161.1738" x="75.5391" y="526.9512">Open the document layout</text><rect fill="#F1F1F1" height="33.9688" rx="12.5" ry="12.5" style="stroke:#181818;stroke-width:0.5;" width="290.252" x="11" y="559.7813"/><text fill="#000000" font-family="sans-serif" font-size="12" lengthAdjust="spacing" textLength="270.252" x="21" y="580.9199">Add contact links next to relevant categories</text><polygon fill="#F1F1F1" points="89.3391,613.75,222.9128,613.75,234.9128,625.75,222.9128,637.75,89.3391,637.75,77.3391,625.75,89.3391,613.75" style="stroke:#181818;stroke-width:0.5;"/><text fill="#000000" font-family="sans-serif" font-size="11" lengthAdjust="spacing" textLength="133.5737" x="89.3391" y="629.5581">Something went wrong?</text><text fill="#000000" font-family="sans-serif" font-size="11" lengthAdjust="spacing" textLength="19.0083" x="234.9128" y="623.1558">yes</text><ellipse cx="275.9211" cy="625.75" fill="none" rx="11" ry="11" style="stroke:#222222;stroke-width:1;"/><ellipse cx="275.9211" cy="625.75" fill="#222222" rx="6" ry="6" style="stroke:#222222;stroke-width:1;"/><rect fill="#F1F1F1" height="33.9688" rx="12.5" ry="12.5" style="stroke:#181818;stroke-width:0.5;" width="202.1504" x="55.0508" y="657.75"/><text fill="#000000" font-family="sans-serif" font-size="12" lengthAdjust="spacing" textLength="182.1504" x="65.0508" y="678.8887">Return the updated document</text><ellipse cx="156.126" cy="722.7188" fill="none" rx="11" ry="11" style="stroke:#222222;stroke-width:1;"/><ellipse cx="156.126" cy="722.7188" fill="#222222" rx="6" ry="6" style="stroke:#222222;stroke-width:1;"/><line style="stroke:#181818;stroke-width:1;" x1="156.126" x2="156.126" y1="30" y2="50"/><polygon fill="#181818" points="152.126,40,156.126,50,160.126,40,156.126,44" style="stroke:#181818;stroke-width:1;"/><line style="stroke:#181818;stroke-width:1;" x1="156.126" x2="156.126" y1="127.9688" y2="147.9688"/><polygon fill="#181818" points="152.126,137.9688,156.126,147.9688,160.126,137.9688,156.126,141.9688" style="stroke:#181818;stroke-width:1;"/><line style="stroke:#181818;stroke-width:1;" x1="213.9817" x2="243.99" y1="115.9688" y2="115.9688"/><polygon fill="#181818" points="233.99,111.9688,243.99,115.9688,233.99,119.9688,237.99,115.9688" style="stroke:#181818;stroke-width:1;"/><line style="stroke:#181818;stroke-width:1;" x1="156.126" x2="156.126" y1="83.9688" y2="103.9688"/><polygon fill="#181818" points="152.126,93.9688,156.126,103.9688,160.126,93.9688,156.126,97.9688" style="stroke:#181818;stroke-width:1;"/><line style="stroke:#181818;stroke-width:1;" x1="156.126" x2="156.126" y1="225.9375" y2="245.9375"/><polygon fill="#181818" points="152.126,235.9375,156.126,245.9375,160.126,235.9375,156.126,239.9375" style="stroke:#181818;stroke-width:1;"/><line style="stroke:#181818;stroke-width:1;" x1="240.4612" x2="270.4695" y1="213.9375" y2="213.9375"/><polygon fill="#181818" points="260.4695,209.9375,270.4695,213.9375,260.4695,217.9375,264.4695,213.9375" style="stroke:#181818;stroke-width:1;"/><line style="stroke:#181818;stroke-width:1;" x1="156.126" x2="156.126" y1="181.9375" y2="201.9375"/><polygon fill="#181818" points="152.126,191.9375,156.126,201.9375,160.126,191.9375,156.126,195.9375" style="stroke:#181818;stroke-width:1;"/><line style="stroke:#181818;stroke-width:1;" x1="156.126" x2="156.126" y1="279.9063" y2="299.9063"/><polygon fill="#181818" points="152.126,289.9063,156.126,299.9063,160.126,289.9063,156.126,293.9063" style="stroke:#181818;stroke-width:1;"/><line style="stroke:#181818;stroke-width:1;" x1="156.126" x2="156.126" y1="333.875" y2="353.875"/><polygon fill="#181818" points="152.126,343.875,156.126,353.875,160.126,343.875,156.126,347.875" style="stroke:#181818;stroke-width:1;"/><line style="stroke:#181818;stroke-width:1;" x1="156.126" x2="156.126" y1="387.8438" y2="407.8438"/><polygon fill="#181818" points="152.126,397.8438,156.126,407.8438,160.126,397.8438,156.126,401.8438" style="stroke:#181818;stroke-width:1;"/><line style="stroke:#181818;stroke-width:1;" x1="156.126" x2="156.126" y1="485.8125" y2="505.8125"/><polygon fill="#181818" points="152.126,495.8125,156.126,505.8125,160.126,495.8125,156.126,499.8125" style="stroke:#181818;stroke-width:1;"/><line style="stroke:#181818;stroke-width:1;" x1="226.6145" x2="256.6228" y1="473.8125" y2="473.8125"/><polygon fill="#181818" points="246.6228,469.8125,256.6228,473.8125,246.6228,477.8125,250.6228,473.8125" style="stroke:#181818;stroke-width:1;"/><line style="stroke:#181818;stroke-width:1;" x1="156.126" x2="156.126" y1="441.8125" y2="461.8125"/><polygon fill="#181818" points="152.126,451.8125,156.126,461.8125,160.126,451.8125,156.126,455.8125" style="stroke:#181818;stroke-width:1;"/><line style="stroke:#181818;stroke-width:1;" x1="156.126" x2="156.126" y1="539.7813" y2="559.7813"/><polygon fill="#181818" points="152.126,549.7813,156.126,559.7813,160.126,549.7813,156.126,553.7813" style="stroke:#181818;stroke-width:1;"/><line style="stroke:#181818;stroke-width:1;" x1="156.126" x2="156.126" y1="637.75" y2="657.75"/><polygon fill="#181818" points="152.126,647.75,156.126,657.75,160.126,647.75,156.126,651.75" style="stroke:#181818;stroke-width:1;"/><line style="stroke:#181818;stroke-width:1;" x1="234.9128" x2="264.9211" y1="625.75" y2="625.75"/><polygon fill="#181818" points="254.9211,621.75,264.9211,625.75,254.9211,629.75,258.9211,625.75" style="stroke:#181818;stroke-width:1;"/><line style="stroke:#181818;stroke-width:1;" x1="156.126" x2="156.126" y1="593.75" y2="613.75"/><polygon fill="#181818" points="152.126,603.75,156.126,613.75,160.126,603.75,156.126,607.75" style="stroke:#181818;stroke-width:1;"/><line style="stroke:#181818;stroke-width:1;" x1="156.126" x2="156.126" y1="691.7188" y2="711.7188"/><polygon fill="#181818" points="152.126,701.7188,156.126,711.7188,160.126,701.7188,156.126,705.7188" style="stroke:#181818;stroke-width:1;"/><!--SRC=[VP5BRiCm34JtFWMNoHNSHL5aMxH0Sm956iU4RTAGw7nkNpf9KxS8iX94FiqCgM8XMrNLcnQn8sve3COGenGi44vShBnKNbzzw9_UwvgiXT3gZBAkY8hfM44IDqkr0OcZlrAXf74QvjV_H1yWJxNVLJjgDC-q-H5LB4GF1GlSkswzqRw7LyPM1IJJi4Ck52GHXYjoKs4fd31xFKhXIbk47DkBMnaHkU58Jc6lcL7e2BzbKDZfvFZFH0kYqKdIqt4-H-_C2UxxwSFv8bU_fNIVhcVf2WbEHgQKqUCGdFsrkjblTO2rB7iFv_rZLja_zV-2JVcQO1hzOv4M2vZ9Rm00]--></g></svg>